<?xml version="1.0" encoding="UTF-8" standalone="no"?>
<svg
   xmlns:dc="http://purl.org/dc/elements/1.1/"
   xmlns:cc="http://creativecommons.org/ns#"
   xmlns:rdf="http://www.w3.org/1999/02/22-rdf-syntax-ns#"
   xmlns:svg="http://www.w3.org/2000/svg"
   xmlns="http://www.w3.org/2000/svg"
   xmlns:sodipodi="http://sodipodi.sourceforge.net/DTD/sodipodi-0.dtd"
   xmlns:inkscape="http://www.inkscape.org/namespaces/inkscape"
   width="16"
   height="16"
   viewBox="0 0 4.2333332 4.2333335"
   version="1.1"
   id="svg8"
   inkscape:version="1.0 (4035a4fb49, 2020-05-01)"
   sodipodi:docname="com.raggesilver.Terminal.svg">
  <defs
     id="defs2" />
  <sodipodi:namedview
     id="base"
     pagecolor="#232323"
     bordercolor="#666666"
     borderopacity="1.0"
     inkscape:pageopacity="1"
     inkscape:pageshadow="2"
     inkscape:zoom="32.000001"
     inkscape:cx="10.764543"
     inkscape:cy="6.7844341"
     inkscape:document-units="px"
     inkscape:current-layer="layer1"
     inkscape:document-rotation="0"
     showgrid="false"
     units="px"
     inkscape:window-width="1693"
     inkscape:window-height="911"
     inkscape:window-x="26"
     inkscape:window-y="23"
     inkscape:window-maximized="0" />
  <metadata
     id="metadata5">
    <rdf:RDF>
      <cc:Work
         rdf:about="">
        <dc:format>image/svg+xml</dc:format>
        <dc:type
           rdf:resource="http://purl.org/dc/dcmitype/StillImage" />
        <dc:title />
      </cc:Work>
    </rdf:RDF>
  </metadata>
  <g
     inkscape:label="Layer 1"
     inkscape:groupmode="layer"
     id="layer1">
    <path
       d="M 0.39687502,0.79374996 H 3.8364583 c 0.07329,0 0.1322917,0.0421444 0.1322917,0.0944941 V 3.3450894 c 0,0.052349 -0.059002,0.094494 -0.1322917,0.094494 H 0.39687502 c -0.0732896,0 -0.13229167,-0.042145 -0.13229167,-0.094494 V 0.88824401 c 0,-0.0523496 0.0590021,-0.0944941 0.13229167,-0.0944941 z"
       style="fill:#cccccc;fill-rule:evenodd;stroke-width:0.555664"
       id="rect7" />
    <path
       id="path12"
       style="fill:#ececec;fill-rule:evenodd;stroke-width:0.547266"
       d="M 0.39687501,0.79375 H 3.8364583 c 0.07329,0 0.1322917,0.0408801 0.1322917,0.0916593 v 2.38314 c 0,0.050777 -0.059002,0.091659 -0.1322917,0.091659 H 0.39687501 c -0.0732895,0 -0.13229168,-0.040882 -0.13229168,-0.091659 V 0.8854092 c 0,-0.0507791 0.059002,-0.0916592 0.13229168,-0.0916592 z" />
    <path
       d="M 0.51971728,0.92604167 H 3.7136161 c 0.068055,0 0.1228422,0.0366656 0.1228422,0.0822098 v 2.1374559 c 0,0.045542 -0.054787,0.082209 -0.1228422,0.082209 H 0.51971728 C 0.45166276,3.2279168 0.396875,3.1912496 0.396875,3.1457074 v -2.137456 c 0,-0.0455441 0.0547875,-0.0822097 0.12284228,-0.0822097 z"
       style="fill:#002a36;fill-rule:evenodd;stroke-width:0.499437;fill-opacity:1"
       id="path14" />
    <text
       id="text18"
       y="2.5490258"
       x="1.6839631"
       style="font-style:normal;font-weight:normal;font-size:1.41111px;line-height:1.25;font-family:sans-serif;fill:#cccccc;fill-opacity:1;stroke:none;stroke-width:0.264583;"
       xml:space="preserve"><tspan
         style="font-style:normal;font-variant:normal;font-weight:bold;font-stretch:normal;font-size:1.41111px;font-family:monospace;-inkscape-font-specification:'monospace Bold';stroke-width:0.264583;fill:#cccccc;fill-opacity:1;"
         y="2.5490258"
         x="1.6839631"
         id="tspan16"
         sodipodi:role="line">$</tspan></text>
  </g>
</svg>
